<svg xmlns="http://www.w3.org/2000/svg" width="416" height="128" fill="transparent">
  <g fill="black" font-size="16">
    <text x="16" y="24">线形</text>
    <text x="336" y="24">圆形</text>
  </g>
  <g fill="black" font-size="12">
    <text x="16" y="40">对角线</text>
    <text x="96" y="40">缓坡线</text>
    <text x="176" y="40">陡坡线</text>
  </g>
  <path d="M 16 48 h 64 v 32 l -32,32 h -32 z
    m 80,0 h 64 v 32 l -64,32 z
    m 80,0 h 64 l -32,64 h -32 z
    m 80,0 h 64 l -21.333333,42.666667 l -42.666667,21.333333 z
    m 80,0 h 64 v 32 a 32,32,0,0,1,-32,32 h -32 z" fill="#7f7f7f" />
  <g stroke="black" stroke-width="2" stroke-linecap="square">
    <rect x="16" y="48" width="64" height="64" />
    <rect x="96" y="48" width="64" height="64" />
    <rect x="176" y="48" width="64" height="64" />
    <rect x="256" y="48" width="64" height="64" />
    <rect x="336" y="48" width="64" height="64" />
  </g>
</svg>
