<svg xmlns="http://www.w3.org/2000/svg" width="384" height="192" fill="transparent">
  <defs>
    <g id="grid" stroke="black" stroke-width="2" stroke-linecap="square">
      <line x1="32" y1="0" x2="128" y2="0" />
      <line x1="0" y1="32" x2="160" y2="32" />
      <line x1="0" y1="64" x2="160" y2="64" />
      <line x1="0" y1="96" x2="160" y2="96" />
      <line x1="0" y1="128" x2="160" y2="128" />
      <line x1="32" y1="160" x2="128" y2="160" />
      <line x1="0" y1="32" x2="0" y2="128" />
      <line x1="32" y1="0" x2="32" y2="160" />
      <line x1="64" y1="0" x2="64" y2="160" />
      <line x1="96" y1="0" x2="96" y2="160" />
      <line x1="128" y1="0" x2="128" y2="160" />
      <line x1="160" y1="32" x2="160" y2="128" />
    </g>
    <g id="names" fill="black" font-size="20" font-family="serif" text-anchor="middle" dominant-baseline="central">
      <text x="48" y="48">A</text>
      <text x="80" y="48">B</text>
      <text x="112" y="48">C</text>
      <text x="48" y="80">D</text>
      <text x="80" y="80">E</text>
      <text x="112" y="80">F</text>
      <text x="48" y="112">G</text>
      <text x="80" y="112">H</text>
      <text x="112" y="112">I</text>
      <text x="16" y="48">A0</text>
      <text x="16" y="80">D0</text>
      <text x="16" y="112">G0</text>
      <text x="48" y="16">A1</text>
      <text x="80" y="16">B1</text>
      <text x="112" y="16">C1</text>
      <text x="144" y="48">C4</text>
      <text x="144" y="80">F4</text>
      <text x="144" y="112">I4</text>
      <text x="48" y="144">G5</text>
      <text x="80" y="144">H5</text>
      <text x="112" y="144">I5</text>
    </g>
  </defs>
  <g fill="#ffbfbf">
    <rect x="48" y="112" width="32" height="32" />
    <rect x="80" y="80" width="32" height="32" />
    <rect x="112" y="48" width="32" height="32" />
    <rect x="80" y="144" width="32" height="32" />
    <rect x="112" y="112" width="32" height="32" />
    <rect x="144" y="80" width="32" height="32" />
  </g>
  <g fill="#ff7f7f">
    <rect x="80" y="112" width="32" height="32" />
    <rect x="112" y="80" width="32" height="32" />
  </g>
  <use x="16" y="16" href="#grid" />
  <g stroke="#ff0000" stroke-width="2">
    <line x1="72" y1="120" x2="88" y2="104" />
    <line x1="104" y1="88" x2="120" y2="72" />
    <line x1="104" y1="152" x2="120" y2="136" />
    <line x1="136" y1="120" x2="152" y2="104" />
    <line x1="104" y1="120" x2="120" y2="104" />
  </g>
  <use x="16" y="16" href="#names" />
  <g fill="#bfbfff">
    <rect x="240" y="80" width="32" height="32" />
    <rect x="272" y="112" width="32" height="32" />
    <rect x="304" y="144" width="32" height="32" />
    <rect x="272" y="48" width="32" height="32" />
    <rect x="304" y="80" width="32" height="32" />
    <rect x="336" y="112" width="32" height="32" />
  </g>
  <g fill="#7f7fff">
    <rect x="304" y="112" width="32" height="32" />
    <rect x="272" y="80" width="32" height="32" />
  </g>
  <use x="208" y="16" href="#grid" />
  <g stroke="#0000ff" stroke-width="2">
    <line x1="264" y1="104" x2="280" y2="120" />
    <line x1="296" y1="72" x2="312" y2="88" />
    <line x1="296" y1="136" x2="312" y2="152" />
    <line x1="328" y1="104" x2="344" y2="120" />
    <line x1="296" y1="104" x2="312" y2="120" />
  </g>
  <use x="208" y="16" href="#names" />
</svg>
