<svg xmlns="http://www.w3.org/2000/svg" width="192" height="192" fill="transparent">
  <defs>
    <g id="grid" stroke="black" stroke-width="2" stroke-linecap="square">
      <line x1="32" y1="0" x2="128" y2="0" />
      <line x1="0" y1="32" x2="160" y2="32" />
      <line x1="0" y1="64" x2="160" y2="64" />
      <line x1="0" y1="96" x2="160" y2="96" />
      <line x1="0" y1="128" x2="160" y2="128" />
      <line x1="32" y1="160" x2="128" y2="160" />
      <line x1="0" y1="32" x2="0" y2="128" />
      <line x1="32" y1="0" x2="32" y2="160" />
      <line x1="64" y1="0" x2="64" y2="160" />
      <line x1="96" y1="0" x2="96" y2="160" />
      <line x1="128" y1="0" x2="128" y2="160" />
      <line x1="160" y1="32" x2="160" y2="128" />
    </g>
    <g id="names" fill="black" font-size="20" font-family="serif" text-anchor="middle" dominant-baseline="central">
      <text x="48" y="48">A</text>
      <text x="80" y="48">B</text>
      <text x="112" y="48">C</text>
      <text x="48" y="80">D</text>
      <text x="80" y="80">E</text>
      <text x="112" y="80">F</text>
      <text x="48" y="112">G</text>
      <text x="80" y="112">H</text>
      <text x="112" y="112">I</text>
      <text x="16" y="48">A0</text>
      <text x="16" y="80">D0</text>
      <text x="16" y="112">G0</text>
      <text x="48" y="16">A1</text>
      <text x="80" y="16">B1</text>
      <text x="112" y="16">C1</text>
      <text x="144" y="48">C4</text>
      <text x="144" y="80">F4</text>
      <text x="144" y="112">I4</text>
      <text x="48" y="144">G5</text>
      <text x="80" y="144">H5</text>
      <text x="112" y="144">I5</text>
    </g>
  </defs>
  <use x="16" y="16" href="#grid" />
  <g stroke="gray" stroke-width="2" stroke-dasharray="6">
    <line x1="0" y1="96" x2="192" y2="96" />
    <line x1="96" y1="0" x2="96" y2="192" />
  </g>
  <use x="16" y="16" href="#names" />
</svg>
